<svg aria-hidden="true" style="position:absolute;width:0,height:0, overflow:hidden" xmlns="http://www.w3.org/2000/svg">
<defs>
<symbol id="icon-facebook" viewBox="0 0 32 32">
<path d="M19 6h5v-6h-5c-3.86 0-7 3.14-7 7v3h-4v6h4v16h6v-16h5l1-6h-6v-3c0-0.542 0.458-1 1-1z"></path>
</symbol>     
<symbol id="icon-dribbble" viewBox="0 0 32 32">
<path d="M16 32c-8.825 0-16-7.175-16-16s7.175-16 16-16c8.825 0 16 7.175 16 16s-7.175 16-16 16v0zM29.494 18.188c-0.469-0.15-4.231-1.269-8.512-0.581 1.788 4.912 2.512 8.912 2.656 9.744 3.063-2.075 5.25-5.356 5.856-9.163v0zM21.337 28.6c-0.206-1.2-0.994-5.375-2.913-10.363-0.031 0.012-0.063 0.019-0.087 0.031-7.713 2.688-10.481 8.031-10.725 8.531 2.319 1.806 5.231 2.887 8.387 2.887 1.894 0 3.7-0.387 5.338-1.087v0zM5.844 25.156c0.313-0.531 4.063-6.738 11.106-9.019 0.175-0.056 0.356-0.113 0.538-0.162-0.344-0.775-0.719-1.556-1.106-2.319-6.819 2.044-13.444 1.956-14.044 1.95-0.006 0.137-0.006 0.275-0.006 0.419 0 3.506 1.331 6.712 3.512 9.131v0zM2.625 13.219c0.612 0.006 6.244 0.031 12.637-1.662-2.262-4.025-4.706-7.412-5.069-7.906-3.825 1.806-6.688 5.331-7.569 9.569v0zM12.8 2.731c0.375 0.506 2.863 3.888 5.1 8 4.863-1.819 6.919-4.588 7.163-4.938-2.413-2.144-5.587-3.444-9.063-3.444-1.1 0.006-2.175 0.138-3.2 0.381v0zM26.581 7.381c-0.288 0.388-2.581 3.325-7.631 5.388 0.319 0.65 0.625 1.313 0.906 1.981 0.1 0.238 0.2 0.469 0.294 0.706 4.55-0.569 9.069 0.344 9.519 0.438-0.031-3.225-1.188-6.188-3.087-8.512v0z"></path>
</symbol>
<symbol id="icon-linkedin2" viewBox="0 0 32 32">
<path d="M12 12h5.535v2.837h0.079c0.77-1.381 2.655-2.837 5.464-2.837 5.842 0 6.922 3.637 6.922 8.367v9.633h-5.769v-8.54c0-2.037-0.042-4.657-3.001-4.657-3.005 0-3.463 2.218-3.463 4.509v8.688h-5.767v-18z"></path>
<path d="M2 12h6v18h-6v-18z"></path>
<path d="M8 7c0 1.657-1.343 3-3 3s-3-1.343-3-3c0-1.657 1.343-3 3-3s3 1.343 3 3z"></path>
</symbol>
<symbol id="icon-twitter" viewBox="0 0 32 32">
<path d="M32 7.075c-1.175 0.525-2.444 0.875-3.769 1.031 1.356-0.813 2.394-2.1 2.887-3.631-1.269 0.75-2.675 1.3-4.169 1.594-1.2-1.275-2.906-2.069-4.794-2.069-3.625 0-6.563 2.938-6.563 6.563 0 0.512 0.056 1.012 0.169 1.494-5.456-0.275-10.294-2.888-13.531-6.862-0.563 0.969-0.887 2.1-0.887 3.3 0 2.275 1.156 4.287 2.919 5.463-1.075-0.031-2.087-0.331-2.975-0.819 0 0.025 0 0.056 0 0.081 0 3.181 2.263 5.838 5.269 6.437-0.55 0.15-1.131 0.231-1.731 0.231-0.425 0-0.831-0.044-1.237-0.119 0.838 2.606 3.263 4.506 6.131 4.563-2.25 1.762-5.075 2.813-8.156 2.813-0.531 0-1.050-0.031-1.569-0.094 2.913 1.869 6.362 2.95 10.069 2.95 12.075 0 18.681-10.006 18.681-18.681 0-0.287-0.006-0.569-0.019-0.85 1.281-0.919 2.394-2.075 3.275-3.394z"></path>
</symbol>
<symbol id="icon-behance" viewBox="0 0 32 32">
<path d="M9.281 6.412c0.944 0 1.794 0.081 2.569 0.25 0.775 0.162 1.431 0.438 1.988 0.813 0.55 0.375 0.975 0.875 1.287 1.5 0.3 0.619 0.45 1.394 0.45 2.313 0 0.994-0.225 1.819-0.675 2.481-0.456 0.662-1.119 1.2-2.006 1.625 1.213 0.35 2.106 0.962 2.706 1.831 0.6 0.875 0.887 1.925 0.887 3.163 0 1-0.194 1.856-0.575 2.581-0.387 0.731-0.912 1.325-1.556 1.781-0.65 0.462-1.4 0.8-2.237 1.019-0.831 0.219-1.688 0.331-2.575 0.331h-9.544v-19.688h9.281zM8.719 14.363c0.769 0 1.406-0.181 1.906-0.55 0.5-0.363 0.738-0.963 0.738-1.787 0-0.456-0.081-0.838-0.244-1.131-0.169-0.294-0.387-0.525-0.669-0.688-0.275-0.169-0.588-0.281-0.956-0.344-0.356-0.069-0.731-0.1-1.113-0.1h-4.050v4.6h4.388zM8.956 22.744c0.425 0 0.831-0.038 1.213-0.125 0.387-0.087 0.731-0.219 1.019-0.419 0.287-0.194 0.531-0.45 0.706-0.788 0.175-0.331 0.256-0.756 0.256-1.275 0-1.012-0.287-1.738-0.856-2.175-0.569-0.431-1.325-0.644-2.262-0.644h-4.7v5.419h4.625z"></path>
<path d="M22.663 22.675c0.587 0.575 1.431 0.863 2.531 0.863 0.788 0 1.475-0.2 2.044-0.6s0.913-0.825 1.044-1.262h3.45c-0.556 1.719-1.394 2.938-2.544 3.675-1.131 0.738-2.519 1.113-4.125 1.113-1.125 0-2.131-0.181-3.038-0.538-0.906-0.363-1.663-0.869-2.3-1.531-0.619-0.663-1.106-1.45-1.45-2.375-0.337-0.919-0.512-1.938-0.512-3.038 0-1.069 0.175-2.063 0.525-2.981 0.356-0.925 0.844-1.719 1.494-2.387s1.413-1.2 2.313-1.588c0.894-0.387 1.881-0.581 2.975-0.581 1.206 0 2.262 0.231 3.169 0.706 0.9 0.469 1.644 1.1 2.225 1.887s0.994 1.694 1.25 2.706c0.256 1.012 0.344 2.069 0.275 3.175h-10.294c0 1.119 0.375 2.188 0.969 2.756zM27.156 15.188c-0.462-0.512-1.256-0.794-2.212-0.794-0.625 0-1.144 0.106-1.556 0.319-0.406 0.213-0.738 0.475-0.994 0.787-0.25 0.313-0.425 0.65-0.525 1.006-0.1 0.344-0.163 0.663-0.181 0.938h6.375c-0.094-1-0.438-1.738-0.906-2.256z"></path>
<path d="M20.887 8h7.981v1.944h-7.981v-1.944z"></path>
</symbol>
<symbol id="icon-logo" viewBox="0 0 30 32">
<path d="M0 0h29.714v32h-29.714v-32z"></path>
</symbol>
<symbol id="icon-mapa" viewBox="0 0 22 32">
<path d="M0 0h21.662v32h-21.662v-32z"></path>
</symbol>
<symbol id="icon-solution" viewBox="0 0 34 32">
<path d="M0 0h34.151v32h-34.151v-32z"></path>
</symbol>
<symbol id="icon-email-big" viewBox="0 0 45 32">
<path d="M0 0h44.8v32h-44.8v-32z"></path>
</symbol>
<symbol id="icon-love" viewBox="0 0 39 32">
<path d="M0 0h38.857v32h-38.857v-32z"></path>
</symbol>
<symbol id="icon-progress" viewBox="0 0 34 32">
<path d="M0 0h34.151v32h-34.151v-32z"></path>
</symbol>
<symbol id="icon-target" viewBox="0 0 34 32">
<path d="M0 0h34.151v32h-34.151v-32z"></path>
</symbol>
<symbol id="icon-email-small" viewBox="0 0 32 32">
<path d="M15.157 23.443l-5.082-4.745c-0.401-0.375-1.050-0.375-1.451 0l-8.623 8.034v1.094c0 1.020 0.894 1.85 1.986 1.85h27.793c1.092 0 1.986-0.83 1.986-1.85v-1.094l-8.623-8.038c-0.403-0.371-1.054-0.371-1.451 0l-5.082 4.745c-0.401 0.377-1.050 0.377-1.451 0.004zM25.96 16.068l5.080 4.745c0.399 0.375 0.725 0.232 0.725-0.316v-10.21c0-0.55-0.326-0.691-0.725-0.316l-5.080 4.745c-0.403 0.373-0.403 0.977 0 1.352zM1.986 1.882c-1.092 0-1.986 0.834-1.986 1.852v0.333l15.080 14.125c0.399 0.375 1.047 0.375 1.446 0l15.24-14.293v-0.166c0-1.018-0.894-1.852-1.986-1.852h-27.793zM0 10.287v10.21c0 0.548 0.326 0.691 0.725 0.316l5.080-4.745c0.403-0.375 0.403-0.979 0-1.353l-5.080-4.744c-0.399-0.375-0.725-0.233-0.725 0.316z"></path>
</symbol>
<symbol id="icon-instagram" viewBox="0 0 32 32">
<path d="M25.672 15.998c0 5.342-4.335 9.673-9.675 9.673-5.342 0-9.672-4.331-9.672-9.673 0-0.636 0.062-1.257 0.181-1.86h-6.505v12.858c0 2.761 2.238 5 5 5h21.997c2.756 0 5-2.238 5-5v-12.858h-6.506c0.119 0.602 0.181 1.224 0.181 1.86zM26.997 0h-21.997c-2.761 0-5 2.238-5 5v5.417h8.1c1.751-2.475 4.636-4.092 7.896-4.092 3.264 0 6.15 1.615 7.897 4.092h8.104v-5.417c0-2.761-2.244-5-5-5zM29.442 6.176c0 0.491-0.405 0.894-0.894 0.894h-2.68c-0.493 0-0.892-0.401-0.892-0.894v-2.679c0-0.491 0.399-0.894 0.892-0.894h2.68c0.49 0 0.894 0.401 0.894 0.894v2.679zM21.948 15.998c0-3.288-2.664-5.954-5.952-5.954-3.285 0-5.952 2.667-5.952 5.954s2.667 5.95 5.952 5.95c3.288 0 5.952-2.664 5.952-5.95z"></path>
</symbol>
<symbol id="icon-adafruit" viewBox="0 0 32 32">
<path d="M19.199 17.059c-1.232 0.197-2.296-0.049-2.375-0.549-0.080-0.5 0.853-1.064 2.087-1.26 1.232-0.196 2.295 0.051 2.373 0.549 0.080 0.499-0.853 1.064-2.085 1.26zM18.028 22.205c-0.451 0.229-1.276-0.484-1.843-1.595-0.568-1.112-0.663-2.2-0.211-2.429 0.451-0.229 1.275 0.484 1.843 1.595 0.567 1.111 0.663 2.2 0.211 2.429zM13.175 20.136c-0.883 0.883-1.887 1.308-2.244 0.951-0.36-0.357 0.067-1.363 0.947-2.245 0.88-0.884 1.885-1.309 2.244-0.952s-0.067 1.364-0.947 2.247zM9.8 13.989c0.228-0.452 1.316-0.357 2.427 0.208 1.112 0.565 1.829 1.389 1.6 1.84-0.231 0.451-1.317 0.359-2.429-0.207s-1.827-1.391-1.597-1.841zM16.2 10.723c0.5 0.077 0.747 1.141 0.552 2.373-0.193 1.233-0.755 2.167-1.256 2.089-0.499-0.080-0.747-1.143-0.553-2.373 0.193-1.233 0.756-2.168 1.257-2.091zM31.98 14.095c-0.104-0.655-0.46-0.843-1.319-1.116l-5.016-1.6s-3.044-1.151-5.299 0.476c-0.304 0.219-0.619 0.468-0.933 0.733 0.264-0.315 0.513-0.629 0.733-0.933 1.62-2.259 0.465-5.3 0.465-5.3l-1.609-5.015c-0.276-0.857-0.463-1.213-1.12-1.315-0.656-0.104-0.943 0.176-1.468 0.907l-3.073 4.279s-2.032 2.537-1.184 5.187c0.115 0.355 0.255 0.732 0.411 1.115-0.247-0.398-0.465-0.719-0.695-1.032l0.032 0.046c-1.648-2.239-4.895-2.083-4.895-2.083s-4.584-0.016-5.267-0.016c-0.901-0.004-1.296 0.067-1.597 0.657s-0.124 0.952 0.409 1.677c0.404 0.553 3.12 4.244 3.12 4.244s1.784 2.717 4.564 2.728c0.373 0.001 0.773-0.016 1.185-0.045-0.5 0.122-0.881 0.234-1.256 0.359l0.116-0.033c-2.64 0.875-3.492 4.013-3.492 4.013l-1.647 5.004c-0.28 0.853-0.336 1.252 0.133 1.72 0.469 0.471 0.867 0.413 1.721 0.131 0.652-0.213 5-1.656 5-1.656s3.136-0.859 4.005-3.499c0.117-0.355 0.225-0.741 0.324-1.139-0.026 0.327-0.040 0.707-0.040 1.091 0 0.032 0 0.064 0 0.096l-0-0.005c0.013 2.78 2.735 4.561 2.735 4.561l4.248 3.111c0.728 0.531 1.088 0.708 1.68 0.407 0.591-0.301 0.66-0.697 0.655-1.599l-0.029-5.267s0.152-3.247-2.089-4.891c-0.268-0.198-0.589-0.415-0.919-0.621l-0.067-0.039c0.383 0.153 0.757 0.293 1.115 0.405 2.648 0.844 5.184-1.192 5.184-1.192l4.272-3.080c0.729-0.527 1.008-0.816 0.905-1.472z"></path>
</symbol>
<symbol id="icon-presentation-chart-svgrepo-com" viewBox="0 0 32 32">
<path d="M32 4.267v-4.267h-32v4.267h1.067v21.333h-0.533c-0.295 0-0.533 0.238-0.533 0.533s0.238 0.533 0.533 0.533h14.933v1.067c0 0.025 0.011 0.047 0.014 0.071-0.925 0.233-1.614 1.065-1.614 2.062 0 1.177 0.957 2.133 2.133 2.133s2.133-0.957 2.133-2.133c0-0.997-0.689-1.829-1.614-2.062 0.003-0.025 0.014-0.046 0.014-0.071v-1.067h14.933c0.295 0 0.533-0.238 0.533-0.533s-0.238-0.533-0.533-0.533h-0.533v-21.333h1.067zM17.067 29.867c0 0.588-0.478 1.067-1.067 1.067s-1.067-0.478-1.067-1.067 0.478-1.067 1.067-1.067 1.067 0.478 1.067 1.067zM1.067 1.067h29.867v2.133h-29.867v-2.133zM29.867 25.6h-27.733v-21.333h27.733v21.333z"></path>
<path d="M13.333 21.333v-6.933h-4.267v9.6h4.267v-2.667zM10.133 15.467h2.133v4.8h-2.133v-4.8zM12.267 22.933h-2.133v-1.6h2.133v1.6z"></path>
<path d="M18.133 21.333v-10.133h-4.267v12.8h4.267v-2.667zM14.933 12.267h2.133v8h-2.133v-8zM17.067 22.933h-2.133v-1.6h2.133v1.6z"></path>
<path d="M22.933 21.333v-6.4h-4.267v9.067h4.267v-2.667zM19.733 16h2.133v4.267h-2.133v-4.267zM21.867 22.933h-2.133v-1.6h2.133v1.6z"></path>
<path d="M27.733 21.333v-13.333h-4.267v16h4.267v-2.667zM24.533 9.067h2.133v11.2h-2.133v-11.2zM26.667 22.933h-2.133v-1.6h2.133v1.6z"></path>
<path d="M4.267 20.267v3.733h4.267v-6.4h-4.267v2.667zM7.467 22.933h-2.133v-1.6h2.133v1.6zM5.333 18.667h2.133v1.6h-2.133v-1.6z"></path>
<path d="M4.267 13.333c0.137 0 0.273-0.052 0.377-0.156l2.823-2.823v1.379c0 0.295 0.238 0.533 0.533 0.533s0.533-0.238 0.533-0.533v-2.667c0-0.069-0.014-0.139-0.041-0.204-0.054-0.131-0.158-0.235-0.289-0.289-0.065-0.027-0.134-0.041-0.204-0.041h-2.667c-0.295 0-0.533 0.238-0.533 0.533s0.238 0.533 0.533 0.533h1.379l-2.823 2.823c-0.209 0.209-0.209 0.546 0 0.754 0.104 0.104 0.241 0.156 0.377 0.156z"></path>
</symbol>
<symbol id="icon-presentation-chart-4-svgrepo-com" viewBox="0 0 32 32">
<path d="M32 2.133h-15.467v-1.6c0-0.295-0.238-0.533-0.533-0.533s-0.533 0.238-0.533 0.533v1.6h-15.467v22.4h14.713l-6.556 6.556c-0.209 0.209-0.209 0.546 0 0.754 0.104 0.104 0.241 0.156 0.377 0.156s0.273-0.052 0.377-0.156l6.556-6.556v5.113c0 0.295 0.238 0.533 0.533 0.533s0.533-0.238 0.533-0.533v-5.113l6.556 6.556c0.104 0.104 0.241 0.156 0.377 0.156s0.273-0.052 0.377-0.156c0.209-0.209 0.209-0.546 0-0.754l-6.556-6.556h14.713v-22.4zM30.933 23.467h-29.867v-20.267h29.867v20.267z"></path>
<path d="M19.2 22.4c0.295 0 0.533-0.238 0.533-0.533v-1.6c0-0.295-0.238-0.533-0.533-0.533s-0.533 0.238-0.533 0.533v1.6c0 0.295 0.238 0.533 0.533 0.533z"></path>
<path d="M21.333 17.6c-0.295 0-0.533 0.238-0.533 0.533v3.733c0 0.295 0.238 0.533 0.533 0.533s0.533-0.238 0.533-0.533v-3.733c0-0.295-0.238-0.533-0.533-0.533z"></path>
<path d="M23.467 18.667c-0.295 0-0.533 0.238-0.533 0.533v2.667c0 0.295 0.238 0.533 0.533 0.533s0.533-0.238 0.533-0.533v-2.667c0-0.295-0.238-0.533-0.533-0.533z"></path>
<path d="M25.6 14.933c-0.295 0-0.533 0.238-0.533 0.533v6.4c0 0.295 0.238 0.533 0.533 0.533s0.533-0.238 0.533-0.533v-6.4c0-0.295-0.238-0.533-0.533-0.533z"></path>
<path d="M27.733 17.067c-0.295 0-0.533 0.238-0.533 0.533v4.267c0 0.295 0.238 0.533 0.533 0.533s0.533-0.238 0.533-0.533v-4.267c0-0.295-0.238-0.533-0.533-0.533z"></path>
<path d="M4.267 20.267h5.333c0.295 0 0.533-0.238 0.533-0.533s-0.238-0.533-0.533-0.533h-5.333c-0.295 0-0.533 0.238-0.533 0.533s0.238 0.533 0.533 0.533z"></path>
<path d="M12.267 21.333h-8c-0.295 0-0.533 0.238-0.533 0.533s0.238 0.533 0.533 0.533h8c0.295 0 0.533-0.238 0.533-0.533s-0.238-0.533-0.533-0.533z"></path>
<path d="M15.976 9.924c-0.010-0.127-0.025-0.253-0.043-0.378-0.011-0.076-0.021-0.151-0.035-0.227-0.025-0.14-0.057-0.278-0.091-0.415-0.015-0.061-0.030-0.123-0.047-0.184-0.041-0.141-0.087-0.28-0.138-0.417-0.021-0.059-0.042-0.118-0.065-0.176-0.051-0.129-0.109-0.253-0.169-0.377-0.032-0.066-0.062-0.133-0.096-0.198-0.055-0.104-0.115-0.204-0.176-0.304-0.049-0.081-0.095-0.163-0.147-0.242-0.047-0.070-0.099-0.136-0.148-0.204-0.074-0.101-0.145-0.204-0.225-0.301 0-0.001-0.001-0.001-0.001-0.001-0.124-0.151-0.254-0.298-0.393-0.437-0.133-0.133-0.274-0.257-0.418-0.376-0.007-0.006-0.014-0.013-0.021-0.019-0.092-0.076-0.189-0.143-0.285-0.213-0.073-0.054-0.145-0.111-0.222-0.162-0.073-0.048-0.148-0.091-0.222-0.135-0.107-0.065-0.215-0.13-0.326-0.188-0.058-0.030-0.118-0.057-0.178-0.086-0.131-0.063-0.263-0.124-0.399-0.179-0.052-0.021-0.105-0.038-0.157-0.058-0.142-0.052-0.286-0.101-0.434-0.143-0.058-0.017-0.116-0.030-0.174-0.045-0.139-0.035-0.278-0.067-0.421-0.092-0.075-0.014-0.151-0.024-0.227-0.035-0.124-0.017-0.247-0.032-0.373-0.042-0.096-0.007-0.193-0.012-0.289-0.014-0.063-0.002-0.125-0.010-0.188-0.010-0.048 0-0.095 0.006-0.143 0.007-0.047 0.001-0.093-0.003-0.141-0.001l-0.211 0.013-0.005 0.006c-3.148 0.256-5.634 2.895-5.634 6.108 0 3.382 2.751 6.133 6.133 6.133 1.535 0 2.938-0.571 4.015-1.508 0.015-0.012 0.033-0.017 0.047-0.031 0.009-0.009 0.011-0.020 0.019-0.029 1.133-1.014 1.889-2.438 2.026-4.039l0.010-0.009 0.011-0.235c0.002-0.047-0.002-0.093-0.001-0.14 0-0.048 0.006-0.095 0.006-0.143 0-0.065-0.008-0.129-0.010-0.193-0.003-0.095-0.007-0.189-0.014-0.283zM10.133 5.347c0.053 0.003 0.106 0.004 0.159 0.008 0.055 0.004 0.111 0.010 0.166 0.016 0.121 0.014 0.241 0.033 0.359 0.055 0.036 0.007 0.071 0.013 0.107 0.020 0.145 0.031 0.289 0.067 0.429 0.11 0.009 0.003 0.018 0.005 0.026 0.007 1.58 0.495 2.829 1.744 3.324 3.324 0.003 0.009 0.005 0.018 0.007 0.026 0.043 0.14 0.079 0.283 0.11 0.429 0.007 0.036 0.013 0.071 0.020 0.107 0.022 0.118 0.041 0.238 0.055 0.359 0.006 0.055 0.011 0.11 0.016 0.166 0.004 0.052 0.005 0.106 0.008 0.159h-4.787v-4.787zM4.8 10.4c0-2.521 1.853-4.612 4.267-4.997v5.244l0.001 0.017c0 0.003 0.001 0.005 0.001 0.007l0.019 0.529h0.293l3.365 3.365c-0.818 0.567-1.809 0.901-2.878 0.901-2.794 0-5.067-2.273-5.067-5.067zM13.553 13.865l-2.665-2.665h3.977c-0.163 1.022-0.631 1.943-1.311 2.665z"></path>
<path d="M20.8 8h4.267c0.295 0 0.533-0.238 0.533-0.533s-0.238-0.533-0.533-0.533h-4.267c-0.295 0-0.533 0.238-0.533 0.533s0.238 0.533 0.533 0.533z"></path>
<path d="M27.36 7.088c-0.102 0.096-0.16 0.234-0.16 0.379s0.058 0.283 0.155 0.373c0.101 0.101 0.234 0.16 0.379 0.16 0.139 0 0.277-0.059 0.379-0.155 0.096-0.101 0.155-0.24 0.155-0.379s-0.059-0.278-0.155-0.379c-0.203-0.197-0.566-0.192-0.752 0z"></path>
<path d="M26.133 5.333h1.6c0.295 0 0.533-0.238 0.533-0.533s-0.238-0.533-0.533-0.533h-1.6c-0.295 0-0.533 0.238-0.533 0.533s0.238 0.533 0.533 0.533z"></path>
<path d="M20.8 5.333h1.067c0.295 0 0.533-0.238 0.533-0.533s-0.238-0.533-0.533-0.533h-1.067c-0.295 0-0.533 0.238-0.533 0.533s0.238 0.533 0.533 0.533z"></path>
<path d="M24 5.333c0.144 0 0.277-0.059 0.379-0.155 0.096-0.101 0.155-0.235 0.155-0.379s-0.059-0.278-0.155-0.379c-0.197-0.197-0.566-0.197-0.757 0-0.097 0.101-0.155 0.234-0.155 0.379s0.058 0.277 0.155 0.379c0.101 0.096 0.234 0.155 0.379 0.155z"></path>
</symbol>
<symbol id="icon-chart-pie-3-svgrepo-com" viewBox="0 0 32 32">
<path d="M13.331 2.131c0 0.295-0.239 0.533-0.533 0.533s-0.533-0.239-0.533-0.533c0-0.295 0.239-0.533 0.533-0.533s0.533 0.239 0.533 0.533z"></path>
<path d="M11.731 3.731c0 0.295-0.239 0.533-0.533 0.533s-0.533-0.239-0.533-0.533c0-0.295 0.239-0.533 0.533-0.533s0.533 0.239 0.533 0.533z"></path>
<path d="M8.531 6.931c0 0.295-0.239 0.533-0.533 0.533s-0.533-0.239-0.533-0.533c0-0.295 0.239-0.533 0.533-0.533s0.533 0.239 0.533 0.533z"></path>
<path d="M6.931 5.331c0 0.295-0.239 0.533-0.533 0.533s-0.533-0.239-0.533-0.533c0-0.295 0.239-0.533 0.533-0.533s0.533 0.239 0.533 0.533z"></path>
<path d="M6.931 8.532c0 0.295-0.239 0.533-0.533 0.533s-0.533-0.239-0.533-0.533c0-0.295 0.239-0.533 0.533-0.533s0.533 0.239 0.533 0.533z"></path>
<path d="M11.731 6.931c0 0.295-0.239 0.533-0.533 0.533s-0.533-0.239-0.533-0.533c0-0.295 0.239-0.533 0.533-0.533s0.533 0.239 0.533 0.533z"></path>
<path d="M13.331 5.331c0 0.295-0.239 0.533-0.533 0.533s-0.533-0.239-0.533-0.533c0-0.295 0.239-0.533 0.533-0.533s0.533 0.239 0.533 0.533z"></path>
<path d="M10.131 5.331c0 0.295-0.239 0.533-0.533 0.533s-0.533-0.239-0.533-0.533c0-0.295 0.239-0.533 0.533-0.533s0.533 0.239 0.533 0.533z"></path>
<path d="M13.331 8.532c0 0.295-0.239 0.533-0.533 0.533s-0.533-0.239-0.533-0.533c0-0.295 0.239-0.533 0.533-0.533s0.533 0.239 0.533 0.533z"></path>
<path d="M10.131 8.532c0 0.295-0.239 0.533-0.533 0.533s-0.533-0.239-0.533-0.533c0-0.295 0.239-0.533 0.533-0.533s0.533 0.239 0.533 0.533z"></path>
<path d="M5.331 10.132c0 0.295-0.239 0.533-0.533 0.533s-0.533-0.239-0.533-0.533c0-0.295 0.239-0.533 0.533-0.533s0.533 0.239 0.533 0.533z"></path>
<path d="M8.531 10.132c0 0.295-0.239 0.533-0.533 0.533s-0.533-0.239-0.533-0.533c0-0.295 0.239-0.533 0.533-0.533s0.533 0.239 0.533 0.533z"></path>
<path d="M11.731 10.132c0 0.295-0.239 0.533-0.533 0.533s-0.533-0.239-0.533-0.533c0-0.295 0.239-0.533 0.533-0.533s0.533 0.239 0.533 0.533z"></path>
<path d="M5.331 13.332c0 0.295-0.239 0.533-0.533 0.533s-0.533-0.239-0.533-0.533c0-0.295 0.239-0.533 0.533-0.533s0.533 0.239 0.533 0.533z"></path>
<path d="M3.731 11.732c0 0.295-0.239 0.533-0.533 0.533s-0.533-0.239-0.533-0.533c0-0.295 0.239-0.533 0.533-0.533s0.533 0.239 0.533 0.533z"></path>
<path d="M8.531 13.332c0 0.295-0.239 0.533-0.533 0.533s-0.533-0.239-0.533-0.533c0-0.295 0.239-0.533 0.533-0.533s0.533 0.239 0.533 0.533z"></path>
<path d="M6.931 11.732c0 0.295-0.239 0.533-0.533 0.533s-0.533-0.239-0.533-0.533c0-0.295 0.239-0.533 0.533-0.533s0.533 0.239 0.533 0.533z"></path>
<path d="M11.731 13.332c0 0.295-0.239 0.533-0.533 0.533s-0.533-0.239-0.533-0.533c0-0.295 0.239-0.533 0.533-0.533s0.533 0.239 0.533 0.533z"></path>
<path d="M13.331 11.732c0 0.295-0.239 0.533-0.533 0.533s-0.533-0.239-0.533-0.533c0-0.295 0.239-0.533 0.533-0.533s0.533 0.239 0.533 0.533z"></path>
<path d="M10.131 11.732c0 0.295-0.239 0.533-0.533 0.533s-0.533-0.239-0.533-0.533c0-0.295 0.239-0.533 0.533-0.533s0.533 0.239 0.533 0.533z"></path>
<path d="M15.465 0.001l-0.57 0.038c-7.929 0.541-14.316 6.928-14.856 14.857l-0.039 0.57h15.465v-15.465zM14.398 14.399h-13.245c0.024-0.225 0.067-0.444 0.101-0.667 0.093 0.080 0.211 0.133 0.343 0.133 0.294 0 0.533-0.239 0.533-0.533s-0.239-0.533-0.533-0.533c-0.065 0-0.124 0.016-0.181 0.037 0.3-1.379 0.794-2.686 1.449-3.896 0.092 0.075 0.205 0.126 0.333 0.126 0.294 0 0.533-0.239 0.533-0.533 0-0.226-0.141-0.416-0.339-0.494 0.28-0.441 0.582-0.866 0.906-1.275-0.018 0.054-0.034 0.109-0.034 0.169 0 0.294 0.239 0.533 0.533 0.533s0.533-0.239 0.533-0.533-0.239-0.533-0.533-0.533c-0.11 0-0.207 0.042-0.292 0.099 0.861-1.039 1.858-1.96 2.966-2.735 0.017 0.28 0.244 0.502 0.527 0.502 0.294 0 0.533-0.239 0.533-0.533 0-0.207-0.122-0.381-0.294-0.47 0.374-0.229 0.757-0.444 1.152-0.64 0.064 0.027 0.134 0.043 0.209 0.043 0.234 0 0.427-0.153 0.499-0.363 1.346-0.584 2.788-0.987 4.302-1.148v2.044c-0.294 0-0.533 0.239-0.533 0.533s0.239 0.533 0.533 0.533v2.134c-0.294 0-0.533 0.239-0.533 0.533s0.239 0.533 0.533 0.533v2.134c-0.294 0-0.533 0.239-0.533 0.533s0.239 0.533 0.533 0.533v2.134c-0.294 0-0.533 0.239-0.533 0.533s0.239 0.533 0.533 0.533v0.533z"></path>
<path d="M28.131 5.568c-2.818-3.272-6.735-5.236-11.030-5.529l-0.57-0.038v16.532h-16.532l0.039 0.57c0.237 3.473 1.569 6.706 3.852 9.349v0.001c0.205 0.237 0.434 0.473 0.744 0.766l0.813 0.769c0.31 0.294 0.559 0.509 0.806 0.699 2.803 2.159 6.229 3.314 9.76 3.314 0.415 0 0.832-0.015 1.249-0.048 7.743-0.597 14.054-6.881 14.681-14.617 0.351-4.323-1.004-8.501-3.814-11.766zM30.883 17.248c-0.586 7.219-6.476 13.083-13.701 13.64-3.704 0.287-7.353-0.796-10.277-3.048-0.218-0.167-0.441-0.361-0.724-0.629l-0.813-0.769c-0.282-0.267-0.489-0.479-0.669-0.688-2.006-2.322-3.225-5.132-3.545-8.155h16.446v-16.446c3.784 0.401 7.219 2.202 9.724 5.111 2.623 3.046 3.887 6.947 3.559 10.983z"></path>
</symbol>
<symbol id="icon-diagram-chart-svgrepo-com" viewBox="0 0 32 32">
<path d="M28.267 21.903v-6.437h-11.733v-5.333h3.733v-8.533h-8.533v8.533h3.733v5.333h-11.733v6.437c-2.101 0.264-3.733 2.058-3.733 4.23 0 2.353 1.914 4.267 4.267 4.267s4.267-1.914 4.267-4.267c0-2.172-1.632-3.966-3.733-4.23v-5.37h10.667v5.37c-2.101 0.264-3.733 2.058-3.733 4.23 0 2.353 1.914 4.267 4.267 4.267s4.267-1.914 4.267-4.267c0-2.172-1.632-3.966-3.733-4.23v-5.37h10.667v5.37c-2.101 0.264-3.733 2.058-3.733 4.23 0 2.353 1.914 4.267 4.267 4.267s4.267-1.914 4.267-4.267c0-2.172-1.632-3.966-3.733-4.23zM12.8 2.667h6.4v6.4h-6.4v-6.4zM7.467 26.133c0 1.765-1.435 3.2-3.2 3.2s-3.2-1.435-3.2-3.2 1.435-3.2 3.2-3.2 3.2 1.435 3.2 3.2zM19.2 26.133c0 1.765-1.435 3.2-3.2 3.2s-3.2-1.435-3.2-3.2 1.435-3.2 3.2-3.2 3.2 1.435 3.2 3.2zM27.733 29.333c-1.765 0-3.2-1.435-3.2-3.2s1.435-3.2 3.2-3.2 3.2 1.435 3.2 3.2-1.435 3.2-3.2 3.2z"></path>
</symbol>
<symbol id="icon-store-dukan-svgrepo-com" viewBox="0 0 32 32">
<path d="M7.213 3.18c0 0.295-0.239 0.533-0.533 0.533s-0.533-0.239-0.533-0.533c0-0.295 0.239-0.533 0.533-0.533s0.533 0.239 0.533 0.533z"></path>
<path d="M5.613 4.78c0 0.295-0.239 0.533-0.533 0.533s-0.533-0.239-0.533-0.533c0-0.295 0.239-0.533 0.533-0.533s0.533 0.239 0.533 0.533z"></path>
<path d="M18.413 4.78c0 0.295-0.239 0.533-0.533 0.533s-0.533-0.239-0.533-0.533c0-0.295 0.239-0.533 0.533-0.533s0.533 0.239 0.533 0.533z"></path>
<path d="M20.013 3.18c0 0.295-0.239 0.533-0.533 0.533s-0.533-0.239-0.533-0.533c0-0.295 0.239-0.533 0.533-0.533s0.533 0.239 0.533 0.533z"></path>
<path d="M21.613 4.78c0 0.295-0.239 0.533-0.533 0.533s-0.533-0.239-0.533-0.533c0-0.295 0.239-0.533 0.533-0.533s0.533 0.239 0.533 0.533z"></path>
<path d="M15.213 7.98c0 0.295-0.239 0.533-0.533 0.533s-0.533-0.239-0.533-0.533c0-0.295 0.239-0.533 0.533-0.533s0.533 0.239 0.533 0.533z"></path>
<path d="M12.013 7.98c0 0.295-0.239 0.533-0.533 0.533s-0.533-0.239-0.533-0.533c0-0.295 0.239-0.533 0.533-0.533s0.533 0.239 0.533 0.533z"></path>
<path d="M28.013 7.98c0 0.295-0.239 0.533-0.533 0.533s-0.533-0.239-0.533-0.533c0-0.295 0.239-0.533 0.533-0.533s0.533 0.239 0.533 0.533z"></path>
<path d="M13.613 9.58c0 0.295-0.239 0.533-0.533 0.533s-0.533-0.239-0.533-0.533c0-0.295 0.239-0.533 0.533-0.533s0.533 0.239 0.533 0.533z"></path>
<path d="M15.213 11.18c0 0.295-0.239 0.533-0.533 0.533s-0.533-0.239-0.533-0.533c0-0.295 0.239-0.533 0.533-0.533s0.533 0.239 0.533 0.533z"></path>
<path d="M10.413 9.58c0 0.295-0.239 0.533-0.533 0.533s-0.533-0.239-0.533-0.533c0-0.295 0.239-0.533 0.533-0.533s0.533 0.239 0.533 0.533z"></path>
<path d="M12.013 11.18c0 0.295-0.239 0.533-0.533 0.533s-0.533-0.239-0.533-0.533c0-0.295 0.239-0.533 0.533-0.533s0.533 0.239 0.533 0.533z"></path>
<path d="M29.613 9.58c0 0.295-0.239 0.533-0.533 0.533s-0.533-0.239-0.533-0.533c0-0.295 0.239-0.533 0.533-0.533s0.533 0.239 0.533 0.533z"></path>
<path d="M26.413 9.58c0 0.295-0.239 0.533-0.533 0.533s-0.533-0.239-0.533-0.533c0-0.295 0.239-0.533 0.533-0.533s0.533 0.239 0.533 0.533z"></path>
<path d="M28.013 11.18c0 0.295-0.239 0.533-0.533 0.533s-0.533-0.239-0.533-0.533c0-0.295 0.239-0.533 0.533-0.533s0.533 0.239 0.533 0.533z"></path>
<path d="M31.747 6.457c0-0.082-0.017-0.16-0.047-0.231-0.002-0.052-0.011-0.104-0.025-0.155l-2.198-4.794c-0.356-0.777-1.139-1.278-1.994-1.278h-22.404c-0.854 0-1.637 0.501-1.994 1.277l-2.167 4.706-0.029 0.077c-0.021 0.073-0.025 0.148-0.020 0.223-0.035 0.082-0.055 0.173-0.055 0.268v3.582c0 0.747 0.194 1.45 0.533 2.061v3.921c-0.245 0.268-0.427 0.604-0.496 0.976-0.059 0.318-0.040 0.655 0.055 0.975 0.052 0.175 0.011 0.387-0.111 0.567-0.558 0.826-0.672 1.977-0.282 2.865 0.059 0.134 0.132 0.261 0.219 0.378 0.123 0.166 0.167 0.386 0.117 0.589-0.028 0.109-0.046 0.222-0.057 0.334-0.044 0.478 0.055 0.942 0.133 1.314 0.083 0.392 0.208 0.985 0.647 1.363 0.235 0.202 0.523 0.307 0.841 0.325v1.933h-1.563l-0.27 0.011-0.327 0.403 0.642 3.853h30.318v-19.806c0.339-0.612 0.533-1.314 0.533-2.061v-3.676zM30.274 11.689c-0.018 0.032-0.038 0.062-0.057 0.093-0.071 0.117-0.148 0.229-0.231 0.335-0.002 0.002-0.003 0.004-0.004 0.005-0.082 0.104-0.171 0.202-0.263 0.293-0.020 0.019-0.041 0.037-0.061 0.055-0.031 0.029-0.065 0.055-0.097 0.083-0.085-0.181-0.267-0.309-0.48-0.309-0.294 0-0.533 0.239-0.533 0.533 0 0.124 0.049 0.232 0.119 0.323-0.029 0.012-0.059 0.022-0.089 0.033-0.069 0.025-0.138 0.049-0.208 0.069-0.049 0.014-0.099 0.026-0.148 0.038-0.078 0.019-0.157 0.034-0.237 0.046-0.042 0.007-0.084 0.014-0.127 0.019-0.124 0.016-0.25 0.026-0.378 0.026-0.419 0-0.819-0.083-1.186-0.23 0.070-0.091 0.119-0.199 0.119-0.323 0-0.294-0.239-0.533-0.533-0.533-0.215 0-0.397 0.129-0.482 0.311-0.317-0.273-0.579-0.606-0.77-0.981 0.111-0.098 0.186-0.237 0.186-0.397 0-0.278-0.215-0.499-0.487-0.524-0.028-0.171-0.046-0.345-0.046-0.523v-1.62c0.294 0 0.533-0.239 0.533-0.533s-0.239-0.533-0.533-0.533v-0.514h6.4v0.514c-0.294 0-0.533 0.239-0.533 0.533s0.239 0.533 0.533 0.533v1.62c0 0.179-0.018 0.353-0.046 0.523-0.271 0.025-0.487 0.246-0.487 0.524 0 0.16 0.074 0.299 0.186 0.397-0.013 0.026-0.024 0.053-0.038 0.078l-0.020 0.034zM13.080 12.247c-0.294 0-0.533 0.239-0.533 0.533 0 0.266 0.198 0.477 0.453 0.517-0.148 0.021-0.299 0.036-0.453 0.036-1.765 0-3.2-1.435-3.2-3.2v-3.2h6.4v3.2c0 1.485-1.018 2.733-2.391 3.092 0.151-0.094 0.258-0.254 0.258-0.445 0-0.295-0.238-0.533-0.533-0.533zM4.703 13.309c-0.043-0.005-0.085-0.013-0.127-0.019-0.080-0.013-0.159-0.028-0.237-0.046-0.050-0.012-0.099-0.024-0.148-0.038-0.070-0.020-0.14-0.045-0.208-0.070-0.048-0.018-0.097-0.033-0.143-0.052-0.101-0.043-0.199-0.091-0.294-0.143-0.049-0.027-0.095-0.057-0.142-0.086-0.058-0.036-0.115-0.073-0.17-0.112-0.042-0.030-0.083-0.061-0.124-0.093-0.071-0.056-0.14-0.115-0.206-0.177-0.020-0.019-0.041-0.036-0.060-0.055-0.093-0.092-0.181-0.189-0.264-0.293-0.002-0.002-0.003-0.004-0.004-0.005-0.083-0.106-0.161-0.218-0.231-0.335-0.019-0.031-0.039-0.061-0.057-0.093l-0.020-0.034c-0.247-0.453-0.387-0.972-0.387-1.522v-3.2h6.4v3.2c0 1.765-1.435 3.2-3.2 3.2-0.127 0-0.253-0.010-0.377-0.025zM16.813 6.933h6.4v3.2c0 1.765-1.435 3.2-3.2 3.2s-3.2-1.435-3.2-3.2v-3.2zM27.482 1.067c0.439 0 0.842 0.258 1.025 0.657l1.905 4.143h-6.22l-0.873-4.8h4.163zM16.813 1.067h0.968c-0.246 0.047-0.435 0.254-0.435 0.514 0 0.294 0.239 0.533 0.533 0.533s0.533-0.239 0.533-0.533c0-0.26-0.189-0.466-0.435-0.514h3.003c-0.246 0.047-0.435 0.254-0.435 0.514 0 0.294 0.239 0.533 0.533 0.533s0.533-0.239 0.533-0.533c0-0.26-0.189-0.466-0.435-0.514h1.057l0.293 1.611c-0.219 0.067-0.381 0.262-0.381 0.502 0 0.294 0.239 0.533 0.533 0.533 0.012 0 0.022-0.006 0.035-0.007l0.392 2.161h-6.294v-4.8zM10.325 1.067h5.421v4.8h-6.294l0.873-4.8zM3.183 3.612c0.086 0.059 0.185 0.102 0.297 0.102 0.294 0 0.533-0.239 0.533-0.533 0-0.247-0.171-0.445-0.398-0.506l0.438-0.951c0.151-0.33 0.456-0.554 0.805-0.624-0.183 0.085-0.311 0.267-0.311 0.482 0 0.294 0.239 0.533 0.533 0.533s0.533-0.239 0.533-0.533c0-0.26-0.189-0.466-0.435-0.514h3.003c-0.246 0.047-0.435 0.254-0.435 0.514 0 0.294 0.239 0.533 0.533 0.533s0.533-0.239 0.533-0.533c0-0.26-0.189-0.466-0.435-0.514h0.862l-0.436 2.4-0.168 0.923c-0.095-0.086-0.218-0.142-0.357-0.142-0.294 0-0.533 0.239-0.533 0.533s0.239 0.533 0.533 0.533c0.069 0 0.135-0.015 0.196-0.039l-0.108 0.593h-6.223l1.038-2.255zM1.969 23.892c-0.067-0.318-0.144-0.679-0.115-0.996 0.005-0.057 0.014-0.116 0.029-0.173 0.126-0.509 0.015-1.064-0.297-1.483-0.037-0.051-0.072-0.11-0.098-0.17-0.244-0.557-0.167-1.313 0.189-1.839 0.302-0.449 0.393-0.983 0.25-1.467-0.046-0.157-0.056-0.327-0.028-0.479 0.037-0.202 0.141-0.385 0.279-0.511l0.035-0.028c0.052-0.042 0.096-0.070 0.134-0.089l0.483-0.395c0.038-0.039 0.085-0.066 0.135-0.088 0.012-0.005 0.023-0.010 0.035-0.014 0.099-0.035 0.206-0.044 0.296-0.042 0.054 0.002 0.107 0.006 0.141 0.010 0.193 0.027 0.369 0.092 0.518 0.185l0.117 0.097c0.056 0.046 0.101 0.091 0.14 0.134 0.038 0.047 0.077 0.094 0.105 0.147 0.082 0.158 0.108 0.373 0.068 0.562-0.102 0.479 0.020 0.989 0.329 1.364 0.063 0.077 0.111 0.179 0.131 0.28 0.013 0.066 0.020 0.136 0.020 0.21-0.001 0.223-0.061 0.484-0.183 0.791v0.001c-0.103 0.261-0.221 0.483-0.349 0.66-0.261 0.36-0.356 0.831-0.276 1.302 0.027 0.157 0.073 0.314 0.139 0.467 0.063 0.145 0.099 0.31 0.109 0.476s-0.009 0.335-0.054 0.487c-0.026 0.085-0.058 0.166-0.095 0.243-0.074 0.153-0.171 0.299-0.292 0.436-0.005 0.006-0.011 0.011-0.016 0.017-0.054 0.060-0.114 0.119-0.177 0.177-0.211 0.189-0.431 0.324-0.593 0.408-0.002 0.001-0.005 0.002-0.007 0.003-0.082 0.042-0.17 0.077-0.259 0.106-0.211 0.069-0.422 0.090-0.545-0.014-0.165-0.143-0.245-0.523-0.299-0.775zM4.095 30.933h-2.297l-0.355-2.133h3.007l-0.355 2.133zM3.48 27.733v-2.171c0.030-0.014 0.059-0.029 0.089-0.044 0.299-0.154 0.565-0.339 0.797-0.546l0.001 0.001c0.005-0.004 0.008-0.009 0.013-0.013 0.102-0.092 0.198-0.187 0.286-0.287 0.013-0.015 0.025-0.032 0.038-0.047 0.067-0.080 0.131-0.162 0.188-0.246 0.026-0.038 0.050-0.076 0.074-0.115 0.043-0.069 0.083-0.141 0.119-0.213 0.019-0.038 0.039-0.076 0.057-0.115 0.050-0.11 0.094-0.222 0.13-0.337 0.041-0.136 0.070-0.277 0.086-0.421s0.020-0.291 0.012-0.436c-0.017-0.291-0.082-0.58-0.194-0.839-0.114-0.262-0.105-0.545 0.021-0.718 0.052-0.072 0.099-0.157 0.147-0.237 0.121-0.198 0.234-0.412 0.33-0.656 0.241-0.608 0.313-1.132 0.218-1.605-0.055-0.277-0.178-0.536-0.355-0.749-0.099-0.12-0.142-0.305-0.109-0.461 0.030-0.14 0.038-0.282 0.037-0.425-0.001-0.037-0.002-0.073-0.005-0.109-0.008-0.125-0.027-0.249-0.058-0.369-0.004-0.013-0.003-0.028-0.006-0.041h11.949v11.2h-13.865zM20.547 30.933v-14.4h7.467v14.4h-7.467zM30.147 30.933h-1.067v-15.467h-9.6v15.467h-14.303l0.356-2.133h12.882v-13.333h-13.808c-0.292-0.201-0.639-0.34-1.017-0.394-0.139-0.020-0.273-0.023-0.403-0.018-0.035 0.001-0.068 0.005-0.102 0.007-0.1 0.009-0.197 0.024-0.289 0.047-0.027 0.007-0.055 0.012-0.082 0.019-0.106 0.032-0.208 0.070-0.3 0.121v-1.784c0.306 0.247 0.645 0.446 1.006 0.598 0.002 0.001 0.003 0.001 0.004 0.002 0.118 0.050 0.238 0.094 0.361 0.132 0.021 0.006 0.042 0.013 0.062 0.019 0.104 0.031 0.21 0.058 0.317 0.082 0.032 0.007 0.064 0.014 0.096 0.021 0.1 0.019 0.202 0.035 0.305 0.047 0.035 0.004 0.070 0.010 0.105 0.013 0.135 0.013 0.272 0.021 0.41 0.021 0.18 0 0.357-0.015 0.531-0.037 0.050-0.006 0.1-0.015 0.149-0.023 0.132-0.021 0.261-0.049 0.388-0.082 0.044-0.011 0.089-0.021 0.132-0.034 0.164-0.048 0.324-0.104 0.479-0.171 0.024-0.010 0.046-0.023 0.069-0.034 0.132-0.060 0.26-0.126 0.385-0.198 0.043-0.025 0.085-0.051 0.127-0.077 0.113-0.071 0.222-0.147 0.327-0.228 0.029-0.022 0.060-0.043 0.089-0.067 0.13-0.105 0.253-0.217 0.369-0.335 0.026-0.027 0.050-0.055 0.076-0.083 0.090-0.097 0.175-0.198 0.257-0.302 0.030-0.039 0.060-0.079 0.089-0.119 0.084-0.117 0.162-0.237 0.233-0.362 0.010-0.018 0.023-0.034 0.033-0.051 0.010 0.018 0.023 0.034 0.033 0.051 0.071 0.125 0.15 0.245 0.233 0.362 0.029 0.041 0.059 0.080 0.089 0.119 0.081 0.105 0.166 0.206 0.257 0.302 0.026 0.028 0.049 0.057 0.076 0.083 0.116 0.119 0.239 0.231 0.369 0.335 0.029 0.023 0.060 0.044 0.089 0.067 0.106 0.081 0.214 0.157 0.327 0.228 0.042 0.026 0.084 0.052 0.127 0.077 0.124 0.072 0.252 0.139 0.385 0.198 0.023 0.011 0.046 0.023 0.069 0.034 0.155 0.067 0.315 0.123 0.479 0.171 0.044 0.013 0.088 0.022 0.132 0.034 0.127 0.033 0.257 0.060 0.388 0.082 0.050 0.008 0.099 0.017 0.149 0.023 0.174 0.022 0.35 0.037 0.53 0.037s0.357-0.015 0.531-0.037c0.050-0.006 0.1-0.015 0.149-0.023 0.132-0.021 0.261-0.049 0.388-0.082 0.044-0.011 0.089-0.021 0.132-0.034 0.164-0.048 0.324-0.104 0.479-0.171 0.024-0.010 0.046-0.023 0.069-0.034 0.132-0.060 0.26-0.126 0.385-0.198 0.043-0.025 0.085-0.051 0.127-0.077 0.113-0.071 0.222-0.147 0.327-0.228 0.029-0.022 0.060-0.043 0.089-0.067 0.13-0.105 0.253-0.217 0.369-0.335 0.026-0.027 0.050-0.055 0.076-0.083 0.090-0.097 0.175-0.198 0.257-0.302 0.030-0.039 0.060-0.079 0.089-0.119 0.084-0.117 0.162-0.237 0.233-0.362 0.010-0.018 0.023-0.034 0.033-0.051 0.010 0.018 0.023 0.034 0.033 0.051 0.071 0.125 0.15 0.245 0.233 0.362 0.029 0.041 0.059 0.080 0.089 0.119 0.081 0.105 0.166 0.206 0.257 0.302 0.026 0.028 0.049 0.057 0.076 0.083 0.116 0.119 0.239 0.231 0.369 0.335 0.029 0.023 0.060 0.044 0.089 0.067 0.106 0.081 0.214 0.157 0.327 0.228 0.042 0.026 0.084 0.052 0.127 0.077 0.124 0.072 0.252 0.139 0.385 0.198 0.023 0.011 0.046 0.023 0.069 0.034 0.155 0.067 0.315 0.123 0.479 0.171 0.044 0.013 0.088 0.022 0.132 0.034 0.127 0.033 0.257 0.060 0.388 0.082 0.050 0.008 0.099 0.017 0.149 0.023 0.174 0.022 0.35 0.037 0.53 0.037s0.357-0.015 0.531-0.037c0.050-0.006 0.1-0.015 0.149-0.023 0.132-0.021 0.261-0.049 0.388-0.082 0.044-0.011 0.089-0.021 0.132-0.034 0.164-0.048 0.324-0.104 0.479-0.171 0.024-0.010 0.046-0.023 0.069-0.034 0.132-0.060 0.26-0.126 0.385-0.198 0.043-0.025 0.085-0.051 0.127-0.077 0.113-0.071 0.222-0.147 0.327-0.228 0.029-0.022 0.060-0.043 0.089-0.067 0.13-0.105 0.253-0.217 0.369-0.335 0.026-0.027 0.050-0.055 0.076-0.083 0.090-0.097 0.175-0.198 0.257-0.302 0.030-0.039 0.060-0.079 0.089-0.119 0.084-0.117 0.162-0.237 0.233-0.362 0.010-0.018 0.023-0.034 0.033-0.051 0.010 0.018 0.023 0.034 0.033 0.051 0.071 0.125 0.15 0.245 0.233 0.362 0.029 0.041 0.059 0.080 0.089 0.119 0.081 0.105 0.166 0.206 0.257 0.302 0.026 0.028 0.049 0.057 0.076 0.083 0.116 0.119 0.239 0.231 0.369 0.335 0.029 0.023 0.060 0.044 0.089 0.067 0.106 0.081 0.214 0.157 0.327 0.228 0.042 0.026 0.084 0.052 0.127 0.077 0.124 0.072 0.252 0.139 0.385 0.198 0.023 0.011 0.046 0.023 0.069 0.034 0.155 0.067 0.315 0.123 0.479 0.171 0.044 0.013 0.088 0.022 0.132 0.034 0.127 0.033 0.257 0.060 0.388 0.082 0.050 0.008 0.099 0.017 0.149 0.023 0.174 0.022 0.35 0.037 0.53 0.037 0.138 0 0.274-0.008 0.41-0.021 0.035-0.003 0.070-0.009 0.105-0.013 0.102-0.012 0.204-0.027 0.305-0.047 0.033-0.006 0.064-0.014 0.096-0.021 0.107-0.023 0.213-0.051 0.317-0.082 0.021-0.006 0.042-0.012 0.062-0.019 0.123-0.039 0.243-0.083 0.361-0.132 0.002-0.001 0.003-0.001 0.004-0.002 0.361-0.153 0.7-0.351 1.006-0.598v17.468z"></path>
<path d="M26.413 22.933c-0.295 0-0.533 0.238-0.533 0.533v1.6c0 0.295 0.238 0.533 0.533 0.533s0.533-0.238 0.533-0.533v-1.6c0-0.295-0.238-0.533-0.533-0.533z"></path>
<path d="M9.88 20.8c0.137 0 0.273-0.052 0.377-0.156l2.133-2.133c0.209-0.209 0.209-0.546 0-0.754s-0.546-0.209-0.754 0l-2.133 2.133c-0.209 0.209-0.209 0.546 0 0.754 0.105 0.104 0.241 0.156 0.377 0.156z"></path>
<path d="M9.88 23.467c0.137 0 0.273-0.052 0.377-0.156l1.067-1.067c0.209-0.209 0.209-0.546 0-0.754s-0.546-0.209-0.754 0l-1.067 1.067c-0.209 0.209-0.209 0.546 0 0.754 0.105 0.104 0.241 0.156 0.377 0.156z"></path>
<path d="M11.635 20.421c-0.097 0.101-0.155 0.24-0.155 0.379s0.058 0.277 0.155 0.373c0.101 0.101 0.234 0.16 0.379 0.16 0.139 0 0.277-0.059 0.379-0.155 0.096-0.101 0.155-0.24 0.155-0.379s-0.059-0.278-0.155-0.379c-0.197-0.197-0.559-0.197-0.757 0z"></path>
<path d="M12.703 20.11c0.105 0.104 0.241 0.156 0.377 0.156s0.273-0.052 0.377-0.156l1.6-1.6c0.209-0.209 0.209-0.546 0-0.754s-0.546-0.209-0.754 0l-1.6 1.6c-0.208 0.209-0.208 0.546 0 0.754z"></path>
<path d="M9.88 26.133c0.137 0 0.273-0.052 0.377-0.156l4.8-4.8c0.209-0.209 0.209-0.546 0-0.754s-0.546-0.209-0.754 0l-4.8 4.8c-0.209 0.209-0.209 0.546 0 0.754 0.105 0.104 0.241 0.156 0.377 0.156z"></path>
<path d="M15.368 20.112c0.101 0.096 0.24 0.155 0.379 0.155s0.277-0.059 0.379-0.155c0.096-0.101 0.155-0.24 0.155-0.379s-0.059-0.278-0.155-0.379c-0.197-0.197-0.56-0.197-0.757 0-0.097 0.101-0.155 0.24-0.155 0.379s0.059 0.277 0.155 0.379z"></path>
</symbol>
<symbol id="icon-briefcase-business-tools-bag-svgrepo-com" viewBox="0 0 32 32">
<path d="M32 10.204c0-2.392-1.945-4.337-4.337-4.337h-4.196v-1.6h-1.067v-0.593c0-2.026-1.648-3.674-3.674-3.674h-5.452c-2.026 0-3.674 1.648-3.674 3.674v0.593h-1.067v1.6h-4.196c-2.391 0-4.337 1.945-4.337 4.337v5.454l0.533 0.183v14.436c0 0.95 0.773 1.723 1.722 1.723h27.489c0.95 0 1.723-0.773 1.723-1.722v-14.437l0.174-0.060h0.001l0.359-0.124v-5.453zM27.663 6.933c1.803 0 3.27 1.467 3.27 3.27v4.693l-2.831 0.975c-2.275 0.784-4.777 1.302-7.836 1.621v-4.161h-1.6v-6.4h8.996zM14.4 20.8h3.2v0.846l-1.287 1.287h-0.625l-1.287-1.287v-0.846zM13.333 19.733h-0.533v-5.333h6.4v5.333h-5.867zM19.2 4.267h-1.067v1.6h-4.267v-1.6h-1.067v-0.83c0-0.145 0.093-0.222 0.133-0.25s0.147-0.082 0.282-0.028c1.796 0.743 3.775 0.743 5.571 0 0.134-0.054 0.242 0.001 0.282 0.028s0.133 0.105 0.133 0.25v0.83zM14.4 6.933h3.2v6.4h-3.2v-6.4zM22.4 5.867h-3.2v-0.533h3.2v0.533zM10.667 3.674c0-1.438 1.17-2.607 2.607-2.607h5.452c1.437 0 2.607 1.17 2.607 2.607v0.593h-1.067v-0.83c0-0.457-0.227-0.882-0.607-1.136s-0.859-0.302-1.282-0.127c-1.534 0.634-3.223 0.634-4.756 0-0.422-0.175-0.901-0.127-1.282 0.127s-0.607 0.679-0.607 1.136v0.83h-1.067v-0.593zM9.6 5.333h3.2v0.533h-3.2v-0.533zM4.337 6.933h8.996v6.4h-1.6v4.175c-2.947-0.271-5.32-0.767-7.836-1.635l-2.83-0.976v-4.693c0-1.803 1.467-3.27 3.27-3.27zM30.4 30.278c0 0.361-0.294 0.655-0.655 0.655h-27.489c-0.361 0-0.655-0.294-0.655-0.655v-14.069l1.949 0.672c2.628 0.906 5.106 1.418 8.184 1.695v2.224h1.6v1.287l1.913 1.913h1.508l1.913-1.913v-1.287h1.6v-2.237c3.189-0.326 5.805-0.862 8.184-1.682l1.949-0.672v14.069z"></path>
<path d="M22.4 29.333h6.4v-3.2h-6.4v3.2zM23.467 27.2h4.267v1.067h-4.267v-1.067z"></path>
<path d="M14.4 18.133h1.067v0.533c0 0.295 0.239 0.533 0.533 0.533s0.533-0.238 0.533-0.533v-0.533h1.067v-3.2h-3.2v3.2zM15.467 16h1.067v1.067h-1.067v-1.067z"></path>
</symbol>
</defs>
</svg>